<?xml version="1.0" standalone="no"?>
<!DOCTYPE svg PUBLIC "-//W3C//DTD SVG 20010904//EN"
 "http://www.w3.org/TR/2001/REC-SVG-20010904/DTD/svg10.dtd">
<svg version="1.0" xmlns="http://www.w3.org/2000/svg"
 width="127.000000pt" height="127.000000pt" viewBox="0 0 127.000000 127.000000"
 preserveAspectRatio="xMidYMid meet">
<metadata>
Created by potrace 1.14, written by Peter Selinger 2001-2017
</metadata>
<g transform="translate(0.000000,127.000000) scale(0.100000,-0.100000)"
fill="#000000" stroke="none">
<path d="M515 1225 c-38 -23 -90 -53 -115 -67 -25 -14 -109 -63 -188 -108
l-142 -82 0 -300 0 -300 38 22 c20 13 62 36 92 53 30 17 87 49 125 72 39 23
112 65 163 95 52 29 96 58 98 64 2 6 3 142 2 302 l-3 290 -70 -41z"/>
<path d="M670 968 l0 -303 167 -95 c91 -52 189 -108 217 -124 28 -15 70 -39
94 -53 l42 -25 -2 302 -3 302 -120 70 c-66 39 -136 79 -155 90 -97 56 -178
103 -207 120 l-33 20 0 -304z"/>
<path d="M456 499 c-93 -54 -170 -99 -172 -99 -2 0 -32 -17 -66 -38 -35 -21
-71 -41 -80 -45 -10 -3 -18 -10 -18 -14 0 -7 60 -45 172 -107 26 -14 113 -64
193 -111 l147 -85 254 147 c204 117 252 149 242 159 -14 13 -493 295 -499 293
-2 0 -80 -45 -173 -100z"/>
</g>
</svg>
